<svg xmlns="http://www.w3.org/2000/svg" viewBox="0 0 512 512" role="img" aria-label="Veritas">
  <rect width="512" height="512" rx="112" fill="#000000"/>
  <path
    d="M256 96c-92.78 0-168 67.16-168 150 0 31.72 11.03 61.14 29.84 85.36L92 416l89.18-31.68C203.92 391.8 229.2 396 256 396c92.78 0 168-67.16 168-150S348.78 96 256 96Z"
    fill="#ffffff"
  />
  <path
    d="M256 132c-72.9 0-132 51.04-132 114 0 25.24 9.51 48.54 25.6 67.42l10.93 12.83-11.5 37.7 39.78-14.13 12.23 4.54C217.6 360.5 236.13 364 256 364c72.9 0 132-51.04 132-118S328.9 132 256 132Z"
    fill="#000000"
  />
</svg>
